<!DOCTYPE svg PUBLIC "-//W3C//DTD SVG 1.1//EN" "http://www.w3.org/Graphics/SVG/1.1/DTD/svg11.dtd">
<!-- Uploaded to: SVG Repo, www.svgrepo.com, Transformed by: SVG Repo Mixer Tools -->
<svg width="800px" height="800px" viewBox="-3.6 -3.6 43.20 43.20" xmlns="http://www.w3.org/2000/svg" xmlns:xlink="http://www.w3.org/1999/xlink" aria-hidden="true" role="img" class="iconify iconify--twemoji" preserveAspectRatio="xMidYMid meet" fill="#ffffff" stroke="#ffffff">
<g id="SVGRepo_bgCarrier" stroke-width="0"/>
<g id="SVGRepo_tracerCarrier" stroke-linecap="round" stroke-linejoin="round" stroke="#CCCCCC" stroke-width="0.21600000000000003"/>
<g id="SVGRepo_iconCarrier">
<path fill="#8395cd" d="M36 32a4 4 0 0 1-4 4H4a4 4 0 0 1-4-4V4a4 4 0 0 1 4-4h28a4 4 0 0 1 4 4v28z"/>
<path fill="#8395cdFFF" d="M10.777 9.342c0-1.458.868-2.418 2.419-2.418h5.488c4.559 0 7.938 2.977 7.938 7.41c0 4.527-3.504 7.349-7.751 7.349H15.43v5.085c0 1.551-.992 2.418-2.326 2.418s-2.326-.867-2.326-2.418V9.342zm4.651 8.248h3.162c1.954 0 3.194-1.426 3.194-3.287c0-1.86-1.24-3.287-3.194-3.287h-3.162v6.574z"/>
</g>
</svg>